<svg width="821" height="337" viewBox="0 0 821 337" fill="none" xmlns="http://www.w3.org/2000/svg">
<rect width="821" height="337" fill="white"/>
<path d="M635.481 313.741H284.132V320.926H635.481V313.741Z" fill="#0100D3"/>
<path d="M414.858 260.649C407.97 260.659 401.368 263.399 396.501 268.264C391.635 273.13 388.903 279.725 388.905 286.6C388.905 293.481 391.644 300.08 396.518 304.945C401.393 309.81 408.005 312.544 414.898 312.544C421.792 312.544 428.404 309.81 433.278 304.945C438.153 300.08 440.892 293.481 440.892 286.6C440.893 283.189 440.22 279.812 438.912 276.66C437.603 273.509 435.685 270.647 433.267 268.236C430.849 265.826 427.979 263.915 424.82 262.613C421.661 261.311 418.276 260.644 414.858 260.649ZM414.858 297.025C411.825 297.025 408.916 295.823 406.771 293.682C404.626 291.541 403.421 288.638 403.421 285.61C403.421 282.583 404.626 279.679 406.771 277.539C408.916 275.398 411.825 274.195 414.858 274.195C417.892 274.195 420.801 275.398 422.946 277.539C425.09 279.679 426.295 282.583 426.295 285.61C426.295 288.638 425.09 291.541 422.946 293.682C420.801 295.823 417.892 297.025 414.858 297.025Z" fill="#0100D3"/>
<path d="M471.964 260.705C469.78 260.705 466.413 260.649 466.413 260.649V275.744H471.66C477.978 275.744 481.353 281.116 481.353 287.414C481.353 293.713 478.274 297.385 471.956 297.385H466.413L466.485 312.552H472.084C475.489 312.556 478.863 311.889 482.01 310.589C485.157 309.289 488.015 307.382 490.422 304.977C492.829 302.572 494.736 299.716 496.035 296.573C497.333 293.431 497.997 290.063 497.989 286.664C497.991 283.253 497.319 279.875 496.012 276.724C494.705 273.572 492.787 270.709 490.37 268.298C487.953 265.887 485.083 263.975 481.924 262.672C478.766 261.369 475.381 260.701 471.964 260.705Z" fill="#0100D3"/>
<path d="M369.086 286.6C368.825 289.437 367.511 292.074 365.403 293.993C363.294 295.913 360.543 296.978 357.689 296.978C354.656 296.978 351.747 295.775 349.602 293.634C347.457 291.493 346.252 288.59 346.252 285.562C346.252 282.535 347.457 279.632 349.602 277.491C351.747 275.35 354.656 274.147 357.689 274.147C360.253 274.147 362.742 275.008 364.757 276.59C366.772 278.172 368.195 280.385 368.798 282.872C371.925 282.649 379.524 281.922 383.195 281.563C382.027 275.673 378.849 270.37 374.203 266.556C369.556 262.742 363.729 260.655 357.713 260.649C350.819 260.649 344.208 263.382 339.333 268.248C334.458 273.113 331.72 279.712 331.72 286.592C331.72 293.473 334.458 300.072 339.333 304.937C344.208 309.802 350.819 312.536 357.713 312.536C364.574 312.536 371.156 309.829 376.026 305.005C380.895 300.181 383.656 293.631 383.706 286.784L369.086 286.6Z" fill="#0100D3"/>
<path d="M620.845 286.601C620.588 289.437 619.276 292.075 617.169 293.995C615.061 295.916 612.31 296.98 609.456 296.978C606.423 296.978 603.514 295.775 601.369 293.635C599.224 291.494 598.019 288.59 598.019 285.563C598.019 282.536 599.224 279.632 601.369 277.491C603.514 275.351 606.423 274.148 609.456 274.148C612.02 274.149 614.508 275.01 616.523 276.592C618.538 278.174 619.961 280.386 620.565 282.873C623.692 282.649 631.29 281.923 634.962 281.564C633.803 275.66 630.624 270.341 625.971 266.517C621.317 262.693 615.476 260.602 609.448 260.602C606.033 260.607 602.653 261.283 599.5 262.593C596.348 263.903 593.484 265.82 591.074 268.234C588.664 270.648 586.754 273.513 585.454 276.665C584.153 279.816 583.487 283.192 583.495 286.601C583.495 293.481 586.233 300.08 591.108 304.945C595.983 309.811 602.594 312.544 609.488 312.544C616.349 312.544 622.931 309.837 627.801 305.013C632.67 300.189 635.431 293.64 635.481 286.792L620.845 286.601Z" fill="#0100D3"/>
<path d="M504.547 312.536H519.599V260.649L504.547 260.96V312.536Z" fill="#0100D3"/>
<path d="M561.045 312.536H576.097V260.649L561.045 260.96V312.536Z" fill="#0100D3"/>
<path d="M464.718 260.649H449.657V312.536H464.718V260.649Z" fill="#0100D3"/>
<path d="M328.001 278.466C328.001 268.504 318.947 260.649 309.11 260.649H289.067V312.32H304.127V274.626C304.127 274.626 311.925 273.493 311.925 278.618C311.925 283.742 306.166 282.537 306.166 282.537V296.435L313.748 312.4H328.001L318.715 294.375C321.55 292.799 323.909 290.49 325.542 287.691C327.176 284.892 328.025 281.705 328.001 278.466Z" fill="#0100D3"/>
<path d="M528.229 275.92C528.229 285.355 534.124 289.307 534.124 295.006C534.124 297.88 528.525 297.401 526.126 297.401V312.568C526.126 312.568 552.039 315.29 552.039 297.401C552.039 284.501 545.113 288.213 545.113 280.015C545.113 277.365 546.672 275.672 553.838 275.672V260.665C542.465 260.649 528.229 259.101 528.229 275.92Z" fill="#0100D3"/>
<path d="M532.868 27.1669C500.876 19.9826 451.601 12 406.101 12C85.7833 12 21 320.925 21 320.925H115.056C125.933 288.197 175.36 228.328 175.36 228.328C163.155 258.422 155.141 289.37 150.087 320.925H253.26C289.995 226.436 372.149 146.019 410.987 111.822C566.147 123.796 638.793 222.724 646.439 295.421C661.635 297.816 796 320.965 796 320.965C764.008 241.1 696.026 15.9913 532.868 27.1669ZM243.343 177.239C231.594 163.773 214.342 157.53 198.554 160.476C230.89 130.862 269.405 108.779 311.325 95.817C282.688 117.374 259.423 145.238 243.343 177.239Z" fill="#0100D3"/>
<path d="M410.703 23C113.979 23 34 309.574 34 309.574H107.581C119.578 273.653 172.364 210.59 206.435 180.257C185.321 218.573 164.206 309.574 164.206 309.574H244.346C283.536 228.95 393.907 74.0885 512.277 35.7721C489.882 28.4281 435.496 23 410.703 23ZM244.346 190.634C228.694 169.791 207.083 165.385 181.962 170.678C226.078 119.876 284.399 95.6414 343.52 80.4745C301.675 107.655 264.341 139.721 244.346 190.634Z" fill="#A0A0A0"/>
<path d="M764.008 308.952L656.036 290.592C630.443 166.064 511.881 113.323 420.705 104.215C420.705 104.215 477.682 55.106 552.063 55.106C691.227 64.6851 764.008 308.952 764.008 308.952Z" fill="#A6A6A6"/>
<path d="M456.887 78.2551C540.866 102.203 659.235 159.454 680.83 295.381L693.626 296.978C682.429 225.933 639.24 119.764 469.684 71.6455L456.887 78.2551Z" fill="#0100D3"/>
<path d="M504.875 56.7022C588.854 80.6499 682.429 146.905 722.419 302.565L735.216 304.162C735.216 304.162 693.626 101.405 524.07 52.7109L504.875 56.7022Z" fill="#0100D3"/>
</svg>
